# Blender v2.77 (sub 0) OBJ File: ''
# www.blender.org
mtllib Lamp.mtl
o Mesh1_Model.001
v 0.030206 0.145769 0.112729
v 0.000000 0.150000 0.000000
v 0.000000 0.145769 0.116705
v 0.058353 0.145769 0.101070
v 0.082523 0.145769 0.082523
v 0.101070 0.145769 0.058353
v 0.112729 0.145769 0.030206
v 0.116705 0.145769 0.000000
v 0.112729 0.145769 -0.030206
v 0.224866 0.133098 -0.060253
v 0.232798 0.133098 0.000000
v 0.224866 0.133098 0.060253
v 0.201609 0.133098 0.116399
v 0.164613 0.133098 0.164613
v 0.116399 0.133098 0.201609
v 0.060253 0.133098 0.224866
v 0.000000 0.133098 0.232798
v -0.030206 0.145769 0.112729
v -0.060253 0.133098 0.224866
v -0.058353 0.145769 0.101070
v -0.116399 0.133098 0.201609
v -0.082523 0.145769 0.082523
v -0.164613 0.133098 0.164613
v -0.101070 0.145769 0.058353
v -0.201609 0.133098 0.116399
v -0.112729 0.145769 0.030206
v -0.224866 0.133098 0.060253
v -0.116705 0.145769 0.000000
v -0.232798 0.133098 0.000000
v -0.224866 0.133098 -0.060253
v -0.112729 0.145769 -0.030206
v -0.101070 0.145769 -0.058353
v -0.082523 0.145769 -0.082523
v -0.058353 0.145769 -0.101070
v -0.030206 0.145769 -0.112729
v 0.000000 0.145769 -0.116705
v 0.000000 0.133098 -0.232798
v -0.060253 0.133098 -0.224866
v 0.000000 0.112053 -0.347668
v -0.089983 0.112053 -0.335822
v 0.000000 0.082746 -0.460713
v -0.119241 0.082746 -0.445015
v 0.000000 0.045329 -0.571339
v -0.147873 0.045329 -0.551871
v 0.000000 0.000000 -0.678965
v -0.175729 0.000000 -0.655829
v -0.175729 -0.000000 0.655829
v -0.339482 -0.000000 0.588001
v -0.339482 0.000000 -0.588001
v -0.480100 -0.000000 0.480100
v -0.480100 0.000000 -0.480100
v -0.588001 -0.000000 0.339482
v -0.588001 0.000000 -0.339482
v -0.655829 -0.000000 0.175729
v -0.655829 0.000000 -0.175729
v -0.678965 0.000000 0.000000
v -0.571339 0.045329 0.000000
v -0.551871 0.045329 0.147873
v -0.494794 0.045329 0.285669
v -0.403997 0.045329 0.403997
v -0.285669 0.045329 0.494794
v -0.147873 0.045329 0.551871
v 0.000000 -0.000000 0.678965
v 0.000000 0.045329 0.571339
v 0.175729 -0.000000 0.655829
v 0.147873 0.045329 0.551871
v 0.285669 0.045329 0.494794
v 0.339482 -0.000000 0.588001
v 0.339482 0.000000 -0.588001
v 0.175729 0.000000 -0.655829
v 0.147873 0.045329 -0.551871
v 0.119241 0.082746 -0.445015
v 0.089983 0.112053 -0.335822
v 0.060253 0.133098 -0.224866
v 0.030206 0.145769 -0.112729
v 0.058353 0.145769 -0.101070
v 0.116399 0.133098 -0.201609
v 0.082523 0.145769 -0.082523
v 0.164613 0.133098 -0.164613
v 0.101070 0.145769 -0.058353
v 0.201609 0.133098 -0.116399
v 0.301090 0.112053 -0.173834
v 0.335822 0.112053 -0.089983
v 0.347668 0.112053 0.000000
v 0.335822 0.112053 0.089983
v 0.301090 0.112053 0.173834
v 0.245839 0.112053 0.245839
v 0.173834 0.112053 0.301090
v 0.089983 0.112053 0.335822
v 0.000000 0.112053 0.347668
v -0.089983 0.112053 0.335822
v -0.173834 0.112053 0.301090
v -0.245839 0.112053 0.245839
v -0.301090 0.112053 0.173834
v -0.335822 0.112053 0.089983
v -0.347668 0.112053 0.000000
v -0.335822 0.112053 -0.089983
v -0.301090 0.112053 -0.173834
v -0.201609 0.133098 -0.116399
v -0.164613 0.133098 -0.164613
v -0.116399 0.133098 -0.201609
v -0.173834 0.112053 -0.301090
v -0.230357 0.082746 -0.398989
v -0.285669 0.045329 -0.494794
v -0.403997 0.045329 -0.403997
v -0.494794 0.045329 -0.285669
v -0.551871 0.045329 -0.147873
v -0.460713 0.082746 0.000000
v -0.445015 0.082746 -0.119241
v -0.398989 0.082746 -0.230357
v -0.325773 0.082746 -0.325773
v -0.245839 0.112053 -0.245839
v -0.445015 0.082746 0.119241
v -0.398989 0.082746 0.230357
v -0.325773 0.082746 0.325773
v -0.230357 0.082746 0.398989
v -0.119241 0.082746 0.445015
v 0.000000 0.082746 0.460713
v 0.119241 0.082746 0.445015
v 0.230357 0.082746 0.398989
v 0.325773 0.082746 0.325773
v 0.403997 0.045329 0.403997
v 0.480100 -0.000000 0.480100
v 0.480100 0.000000 -0.480100
v 0.403997 0.045329 -0.403997
v 0.285669 0.045329 -0.494794
v 0.230357 0.082746 -0.398989
v 0.173834 0.112053 -0.301090
v 0.245839 0.112053 -0.245839
v 0.325773 0.082746 -0.325773
v 0.398989 0.082746 -0.230357
v 0.445015 0.082746 -0.119241
v 0.460713 0.082746 0.000000
v 0.445015 0.082746 0.119241
v 0.398989 0.082746 0.230357
v 0.494794 0.045329 0.285669
v 0.588001 -0.000000 0.339482
v 0.588001 0.000000 -0.339482
v 0.494794 0.045329 -0.285669
v 0.551871 0.045329 -0.147873
v 0.571339 0.045329 0.000000
v 0.551871 0.045329 0.147873
v 0.655829 -0.000000 0.175729
v 0.655829 0.000000 -0.175729
v 0.678965 0.000000 0.000000
vt 0.0000 -0.0001
vt -0.0000 0.0000
vt -0.0000 -0.0001
vt 0.0000 -0.0001
vt 0.0000 -0.0001
vt 0.0000 -0.0001
vt 0.0000 -0.0001
vt 0.0000 -0.0001
vt 0.0000 -0.0001
vt 0.0000 -0.0003
vt -0.0000 -0.0003
vt -0.0000 -0.0003
vt -0.0000 -0.0003
vt -0.0000 -0.0003
vt -0.0000 -0.0003
vt -0.0000 -0.0003
vt -0.0000 -0.0003
vt -0.0000 -0.0001
vt -0.0000 -0.0003
vt -0.0000 -0.0001
vt -0.0000 -0.0003
vt -0.0000 -0.0001
vt -0.0000 -0.0003
vt -0.0000 -0.0001
vt -0.0000 -0.0003
vt -0.0000 -0.0001
vt -0.0000 -0.0003
vt -0.0000 -0.0001
vt -0.0000 -0.0003
vt -0.0000 -0.0003
vt -0.0000 -0.0001
vt -0.0000 -0.0001
vt -0.0000 -0.0001
vt -0.0000 -0.0001
vt -0.0000 -0.0001
vt -0.0000 -0.0001
vt -0.0000 -0.0003
vt 0.0000 -0.0003
vt -0.0000 -0.0004
vt 0.0000 -0.0004
vt -0.0001 -0.0006
vt 0.0001 -0.0006
vt -0.0001 -0.0007
vt 0.0001 -0.0005
vt -0.0001 -0.0005
vt 0.0001 -0.0007
vt -0.0001 -0.0008
vt 0.0001 -0.0008
vt 0.0002 -0.0009
vt 0.0002 0.0009
vt 0.0000 0.0009
vt 0.0003 -0.0008
vt 0.0003 0.0008
vt 0.0005 -0.0006
vt 0.0005 0.0006
vt 0.0006 -0.0005
vt 0.0006 0.0005
vt 0.0007 -0.0002
vt 0.0007 0.0002
vt 0.0007 -0.0000
vt 0.0001 -0.0008
vt -0.0001 -0.0007
vt -0.0001 -0.0008
vt 0.0001 -0.0007
vt 0.0001 -0.0008
vt -0.0001 -0.0007
vt -0.0001 -0.0008
vt 0.0001 -0.0007
vt 0.0001 -0.0008
vt -0.0001 -0.0007
vt -0.0001 -0.0008
vt 0.0001 -0.0007
vt 0.0001 -0.0008
vt -0.0001 -0.0007
vt -0.0001 -0.0008
vt 0.0001 -0.0007
vt 0.0001 -0.0008
vt -0.0001 -0.0007
vt -0.0001 -0.0008
vt 0.0001 -0.0007
vt 0.0001 -0.0008
vt -0.0001 -0.0007
vt -0.0001 -0.0008
vt 0.0001 -0.0007
vt 0.0001 -0.0008
vt -0.0001 -0.0007
vt -0.0001 -0.0008
vt 0.0001 -0.0007
vt -0.0001 -0.0008
vt 0.0001 -0.0007
vt -0.0001 -0.0007
vt 0.0001 -0.0008
vt -0.0002 -0.0009
vt -0.0003 0.0008
vt -0.0003 -0.0008
vt -0.0002 0.0009
vt 0.0000 -0.0009
vt 0.0001 -0.0008
vt -0.0001 -0.0007
vt -0.0001 -0.0008
vt 0.0001 -0.0007
vt -0.0001 -0.0005
vt 0.0001 -0.0005
vt 0.0001 -0.0006
vt -0.0000 -0.0004
vt -0.0001 -0.0006
vt -0.0000 -0.0003
vt -0.0000 -0.0001
vt -0.0000 -0.0001
vt -0.0000 -0.0003
vt -0.0000 -0.0001
vt -0.0000 -0.0003
vt -0.0000 -0.0001
vt -0.0000 -0.0003
vt 0.0000 -0.0004
vt -0.0000 -0.0004
vt -0.0000 -0.0004
vt -0.0000 -0.0004
vt -0.0000 -0.0004
vt -0.0000 -0.0004
vt -0.0000 -0.0004
vt -0.0000 -0.0004
vt -0.0000 -0.0004
vt -0.0000 -0.0004
vt -0.0000 -0.0004
vt -0.0000 -0.0004
vt -0.0000 -0.0004
vt -0.0000 -0.0004
vt -0.0000 -0.0004
vt -0.0000 -0.0004
vt -0.0000 -0.0004
vt -0.0000 -0.0003
vt -0.0000 -0.0003
vt -0.0000 -0.0003
vt 0.0000 -0.0004
vt -0.0001 -0.0006
vt 0.0001 -0.0006
vt -0.0001 -0.0007
vt 0.0001 -0.0005
vt -0.0001 -0.0005
vt 0.0001 -0.0007
vt -0.0001 -0.0008
vt 0.0001 -0.0008
vt -0.0001 -0.0008
vt 0.0001 -0.0007
vt -0.0001 -0.0007
vt 0.0001 -0.0008
vt -0.0001 -0.0008
vt 0.0001 -0.0007
vt -0.0001 -0.0007
vt 0.0001 -0.0008
vt -0.0001 -0.0008
vt 0.0001 -0.0007
vt -0.0001 -0.0007
vt 0.0001 -0.0008
vt -0.0001 -0.0008
vt 0.0001 -0.0007
vt -0.0001 -0.0007
vt 0.0001 -0.0008
vt 0.0001 -0.0005
vt -0.0001 -0.0005
vt -0.0001 -0.0006
vt 0.0001 -0.0006
vt -0.0001 -0.0006
vt 0.0001 -0.0006
vt -0.0001 -0.0006
vt 0.0001 -0.0006
vt -0.0000 -0.0004
vt -0.0001 -0.0006
vt 0.0001 -0.0006
vt 0.0001 -0.0005
vt -0.0001 -0.0005
vt 0.0001 -0.0005
vt -0.0001 -0.0005
vt 0.0001 -0.0005
vt -0.0001 -0.0005
vt 0.0001 -0.0006
vt -0.0001 -0.0006
vt 0.0001 -0.0006
vt -0.0001 -0.0006
vt 0.0001 -0.0006
vt -0.0001 -0.0006
vt 0.0001 -0.0006
vt -0.0001 -0.0006
vt 0.0001 -0.0006
vt -0.0001 -0.0006
vt 0.0001 -0.0006
vt -0.0001 -0.0006
vt -0.0001 -0.0006
vt 0.0001 -0.0006
vt -0.0001 -0.0005
vt 0.0001 -0.0005
vt -0.0001 -0.0005
vt 0.0001 -0.0005
vt -0.0001 -0.0005
vt 0.0001 -0.0005
vt -0.0001 -0.0005
vt 0.0001 -0.0005
vt -0.0001 -0.0005
vt 0.0001 -0.0005
vt -0.0001 -0.0005
vt 0.0001 -0.0005
vt -0.0001 -0.0005
vt 0.0001 -0.0005
vt 0.0001 -0.0005
vt -0.0001 -0.0005
vt -0.0001 -0.0007
vt 0.0001 -0.0005
vt -0.0001 -0.0005
vt 0.0001 -0.0007
vt -0.0001 -0.0008
vt 0.0001 -0.0008
vt -0.0005 0.0006
vt -0.0005 -0.0006
vt 0.0001 -0.0008
vt -0.0001 -0.0007
vt -0.0001 -0.0008
vt 0.0001 -0.0007
vt 0.0001 -0.0008
vt -0.0001 -0.0007
vt -0.0001 -0.0008
vt 0.0001 -0.0007
vt -0.0001 -0.0005
vt 0.0001 -0.0005
vt 0.0001 -0.0006
vt -0.0000 -0.0004
vt -0.0001 -0.0006
vt -0.0000 -0.0004
vt 0.0001 -0.0006
vt -0.0001 -0.0006
vt 0.0001 -0.0006
vt -0.0001 -0.0006
vt 0.0001 -0.0006
vt -0.0001 -0.0006
vt -0.0001 -0.0006
vt 0.0001 -0.0006
vt -0.0001 -0.0006
vt 0.0001 -0.0006
vt -0.0001 -0.0006
vt 0.0001 -0.0006
vt -0.0001 -0.0006
vt 0.0001 -0.0006
vt -0.0001 -0.0006
vt 0.0001 -0.0006
vt -0.0001 -0.0007
vt 0.0001 -0.0005
vt -0.0001 -0.0005
vt 0.0001 -0.0007
vt -0.0001 -0.0008
vt 0.0001 -0.0008
vt -0.0006 0.0005
vt -0.0006 -0.0005
vt 0.0001 -0.0008
vt -0.0001 -0.0007
vt -0.0001 -0.0008
vt 0.0001 -0.0007
vt -0.0001 -0.0005
vt 0.0001 -0.0005
vt -0.0001 -0.0005
vt 0.0001 -0.0005
vt 0.0001 -0.0006
vt -0.0001 -0.0006
vt -0.0001 -0.0005
vt 0.0001 -0.0007
vt 0.0001 -0.0005
vt -0.0001 -0.0007
vt -0.0001 -0.0005
vt 0.0001 -0.0007
vt 0.0001 -0.0005
vt -0.0001 -0.0007
vt 0.0001 -0.0005
vt -0.0001 -0.0007
vt 0.0001 -0.0007
vt -0.0001 -0.0005
vt 0.0001 -0.0005
vt -0.0001 -0.0007
vt 0.0001 -0.0007
vt -0.0001 -0.0005
vt -0.0001 -0.0008
vt 0.0001 -0.0008
vt -0.0007 0.0002
vt -0.0007 -0.0002
vt 0.0001 -0.0008
vt -0.0001 -0.0008
vt 0.0001 -0.0008
vt -0.0001 -0.0008
vt -0.0001 -0.0008
vt 0.0001 -0.0008
vt -0.0007 0.0000
vn 0.0187 0.9974 0.0699
vn 0.0000 1.0000 0.0000
vn 0.0000 0.9974 0.0724
vn 0.0362 0.9974 0.0627
vn 0.0512 0.9974 0.0512
vn 0.0627 0.9974 0.0362
vn 0.0699 0.9974 0.0187
vn 0.0724 0.9974 0.0000
vn 0.0699 0.9974 -0.0187
vn 0.1395 0.9895 -0.0374
vn 0.1445 0.9895 0.0000
vn 0.1395 0.9895 0.0374
vn 0.1251 0.9895 0.0722
vn 0.1021 0.9895 0.1021
vn 0.0722 0.9895 0.1251
vn 0.0374 0.9895 0.1395
vn -0.0000 0.9895 0.1445
vn -0.0187 0.9974 0.0699
vn -0.0374 0.9895 0.1395
vn -0.0362 0.9974 0.0627
vn -0.0722 0.9895 0.1251
vn -0.0512 0.9974 0.0512
vn -0.1021 0.9895 0.1021
vn -0.0627 0.9974 0.0362
vn -0.1252 0.9895 0.0722
vn -0.0699 0.9974 0.0187
vn -0.1395 0.9895 0.0374
vn -0.0724 0.9974 -0.0000
vn -0.1445 0.9895 -0.0000
vn -0.1395 0.9895 -0.0374
vn -0.0699 0.9974 -0.0187
vn -0.0627 0.9974 -0.0362
vn -0.0512 0.9974 -0.0512
vn -0.0362 0.9974 -0.0627
vn -0.0187 0.9974 -0.0699
vn -0.0000 0.9974 -0.0725
vn 0.0000 0.9895 -0.1444
vn -0.0374 0.9895 -0.1395
vn 0.0000 0.9765 -0.2157
vn -0.0558 0.9765 -0.2083
vn 0.0000 0.9583 -0.2858
vn -0.0740 0.9583 -0.2762
vn 0.0000 0.9350 -0.3546
vn -0.0917 0.9351 -0.3424
vn -0.0000 0.9216 -0.3882
vn -0.1005 0.9216 -0.3749
vn -0.0000 -1.0000 -0.0000
vn -0.3749 0.9216 0.1005
vn -0.3546 0.9350 -0.0000
vn -0.3882 0.9216 0.0000
vn -0.3424 0.9351 0.0918
vn -0.3361 0.9216 0.1941
vn -0.3071 0.9350 0.1773
vn -0.2745 0.9216 0.2745
vn -0.2507 0.9350 0.2507
vn -0.1941 0.9216 0.3361
vn -0.1773 0.9350 0.3071
vn -0.1005 0.9216 0.3749
vn -0.0918 0.9351 0.3424
vn 0.0000 0.9216 0.3882
vn 0.0000 0.9350 0.3546
vn 0.1005 0.9216 0.3749
vn 0.0917 0.9351 0.3424
vn 0.1773 0.9350 0.3071
vn 0.1941 0.9216 0.3361
vn 0.0917 0.9351 -0.3424
vn 0.1005 0.9216 -0.3749
vn 0.0740 0.9582 -0.2762
vn 0.0558 0.9765 -0.2084
vn 0.0374 0.9895 -0.1395
vn 0.0187 0.9974 -0.0698
vn 0.0362 0.9974 -0.0627
vn 0.0722 0.9895 -0.1251
vn 0.0512 0.9974 -0.0512
vn 0.1021 0.9895 -0.1021
vn 0.0627 0.9974 -0.0362
vn 0.1252 0.9895 -0.0722
vn 0.1868 0.9765 -0.1079
vn 0.2083 0.9765 -0.0558
vn 0.2157 0.9765 -0.0000
vn 0.2083 0.9765 0.0558
vn 0.1868 0.9765 0.1079
vn 0.1525 0.9765 0.1525
vn 0.1079 0.9765 0.1868
vn 0.0558 0.9765 0.2084
vn -0.0000 0.9765 0.2157
vn -0.0558 0.9765 0.2084
vn -0.1079 0.9765 0.1868
vn -0.1525 0.9765 0.1525
vn -0.1868 0.9765 0.1079
vn -0.2083 0.9765 0.0558
vn -0.2157 0.9765 0.0000
vn -0.2083 0.9765 -0.0558
vn -0.1868 0.9765 -0.1079
vn -0.1251 0.9895 -0.0722
vn -0.1021 0.9895 -0.1021
vn -0.0722 0.9895 -0.1251
vn -0.1079 0.9765 -0.1868
vn -0.1429 0.9582 -0.2477
vn -0.1773 0.9350 -0.3071
vn -0.1941 0.9216 -0.3361
vn -0.2507 0.9351 -0.2507
vn -0.2745 0.9216 -0.2745
vn -0.3071 0.9350 -0.1773
vn -0.3361 0.9216 -0.1941
vn -0.3424 0.9351 -0.0918
vn -0.3749 0.9216 -0.1005
vn -0.2858 0.9583 0.0000
vn -0.2762 0.9582 -0.0740
vn -0.2476 0.9583 -0.1429
vn -0.2022 0.9582 -0.2022
vn -0.1525 0.9765 -0.1525
vn -0.2762 0.9582 0.0740
vn -0.2476 0.9583 0.1429
vn -0.2021 0.9583 0.2021
vn -0.1429 0.9582 0.2477
vn -0.0740 0.9582 0.2762
vn -0.0000 0.9583 0.2858
vn 0.0740 0.9582 0.2762
vn 0.1429 0.9583 0.2476
vn 0.2022 0.9582 0.2022
vn 0.2506 0.9351 0.2506
vn 0.2745 0.9216 0.2745
vn 0.1941 0.9216 -0.3361
vn 0.2507 0.9351 -0.2507
vn 0.2745 0.9216 -0.2745
vn 0.1773 0.9350 -0.3071
vn 0.1429 0.9582 -0.2477
vn 0.1079 0.9765 -0.1868
vn 0.1525 0.9765 -0.1525
vn 0.2021 0.9583 -0.2021
vn 0.2477 0.9582 -0.1430
vn 0.2762 0.9582 -0.0740
vn 0.2858 0.9583 0.0000
vn 0.2762 0.9582 0.0740
vn 0.2476 0.9583 0.1429
vn 0.3071 0.9350 0.1773
vn 0.3361 0.9216 0.1941
vn 0.3071 0.9350 -0.1773
vn 0.3361 0.9216 -0.1941
vn 0.3424 0.9351 -0.0918
vn 0.3546 0.9350 0.0000
vn 0.3424 0.9351 0.0918
vn 0.3749 0.9216 0.1005
vn 0.3749 0.9216 -0.1005
vn 0.3882 0.9216 0.0000
usemtl my_white.004
s 1
f 1/1/1 2/2/2 3/3/3
f 4/4/4 2/2/2 1/1/1
f 5/5/5 2/2/2 4/4/4
f 6/6/6 2/2/2 5/5/5
f 7/7/7 2/2/2 6/6/6
f 8/8/8 2/2/2 7/7/7
f 8/8/8 9/9/9 2/2/2
f 8/8/8 10/10/10 9/9/9
f 10/10/10 8/8/8 11/11/11
f 8/8/8 12/12/12 11/11/11
f 12/12/12 8/8/8 7/7/7
f 7/7/7 13/13/13 12/12/12
f 13/13/13 7/7/7 6/6/6
f 6/6/6 14/14/14 13/13/13
f 14/14/14 6/6/6 5/5/5
f 5/5/5 15/15/15 14/14/14
f 15/15/15 5/5/5 4/4/4
f 4/4/4 16/16/16 15/15/15
f 16/16/16 4/4/4 1/1/1
f 3/3/3 16/16/16 1/1/1
f 16/16/16 3/3/3 17/17/17
f 18/18/18 17/17/17 3/3/3
f 17/17/17 18/18/18 19/19/19
f 20/20/20 19/19/19 18/18/18
f 19/19/19 20/20/20 21/21/21
f 22/22/22 21/21/21 20/20/20
f 21/21/21 22/22/22 23/23/23
f 24/24/24 23/23/23 22/22/22
f 23/23/23 24/24/24 25/25/25
f 26/26/26 25/25/25 24/24/24
f 25/25/25 26/26/26 27/27/27
f 28/28/28 27/27/27 26/26/26
f 27/27/27 28/28/28 29/29/29
f 28/28/28 30/30/30 29/29/29
f 30/30/30 28/28/28 31/31/31
f 2/2/2 31/31/31 28/28/28
f 2/2/2 32/32/32 31/31/31
f 2/2/2 33/33/33 32/32/32
f 2/2/2 34/34/34 33/33/33
f 2/2/2 35/35/35 34/34/34
f 36/36/36 35/35/35 2/2/2
f 37/37/37 35/35/35 36/36/36
f 35/35/35 37/37/37 38/38/38
f 39/39/39 38/38/38 37/37/37
f 38/38/38 39/39/39 40/40/40
f 41/41/41 40/40/40 39/39/39
f 40/40/40 41/41/41 42/42/42
f 43/43/43 42/44/42 41/45/41
f 42/44/42 43/43/43 44/46/44
f 45/47/45 44/46/44 43/43/43
f 44/46/44 45/47/45 46/48/46
f 47/49/47 46/50/47 45/51/47
f 48/52/47 46/50/47 47/49/47
f 48/52/47 49/53/47 46/50/47
f 50/54/47 49/53/47 48/52/47
f 50/54/47 51/55/47 49/53/47
f 52/56/47 51/55/47 50/54/47
f 52/56/47 53/57/47 51/55/47
f 54/58/47 53/57/47 52/56/47
f 54/58/47 55/59/47 53/57/47
f 55/59/47 54/58/47 56/60/47
f 54/61/48 57/62/49 56/63/50
f 57/62/49 54/61/48 58/64/51
f 52/65/52 58/66/51 54/67/48
f 58/66/51 52/65/52 59/68/53
f 50/69/54 59/70/53 52/71/52
f 59/70/53 50/69/54 60/72/55
f 48/73/56 60/74/55 50/75/54
f 60/74/55 48/73/56 61/76/57
f 47/77/58 61/78/57 48/79/56
f 61/78/57 47/77/58 62/80/59
f 63/81/60 62/82/59 47/83/58
f 62/82/59 63/81/60 64/84/61
f 65/85/62 64/86/61 63/87/60
f 64/86/61 65/85/62 66/88/63
f 65/89/62 67/90/64 66/91/63
f 67/90/64 65/89/62 68/92/65
f 65/93/47 69/94/47 68/95/47
f 65/93/47 70/96/47 69/94/47
f 63/97/47 70/96/47 65/93/47
f 63/97/47 45/51/47 70/96/47
f 47/49/47 45/51/47 63/97/47
f 45/98/45 71/99/66 70/100/67
f 71/99/66 45/98/45 43/101/43
f 43/101/43 72/102/68 71/99/66
f 72/102/68 43/101/43 41/103/41
f 41/104/41 73/105/69 72/106/68
f 73/105/69 41/104/41 39/39/39
f 37/37/37 73/105/69 39/39/39
f 73/105/69 37/37/37 74/107/70
f 37/37/37 75/108/71 74/107/70
f 75/108/71 37/37/37 36/36/36
f 75/108/71 36/36/36 2/2/2
f 76/109/72 75/108/71 2/2/2
f 76/109/72 74/107/70 75/108/71
f 74/107/70 76/109/72 77/110/73
f 78/111/74 77/110/73 76/109/72
f 77/110/73 78/111/74 79/112/75
f 80/113/76 79/112/75 78/111/74
f 79/112/75 80/113/76 81/114/77
f 9/9/9 81/114/77 80/113/76
f 81/114/77 9/9/9 10/10/10
f 10/10/10 82/115/78 81/114/77
f 82/115/78 10/10/10 83/116/79
f 11/11/11 83/116/79 10/10/10
f 83/116/79 11/11/11 84/117/80
f 11/11/11 85/118/81 84/117/80
f 85/118/81 11/11/11 12/12/12
f 12/12/12 86/119/82 85/118/81
f 86/119/82 12/12/12 13/13/13
f 13/13/13 87/120/83 86/119/82
f 87/120/83 13/13/13 14/14/14
f 14/14/14 88/121/84 87/120/83
f 88/121/84 14/14/14 15/15/15
f 15/15/15 89/122/85 88/121/84
f 89/122/85 15/15/15 16/16/16
f 17/17/17 89/122/85 16/16/16
f 89/122/85 17/17/17 90/123/86
f 19/19/19 90/123/86 17/17/17
f 90/123/86 19/19/19 91/124/87
f 21/21/21 91/124/87 19/19/19
f 91/124/87 21/21/21 92/125/88
f 23/23/23 92/125/88 21/21/21
f 92/125/88 23/23/23 93/126/89
f 25/25/25 93/126/89 23/23/23
f 93/126/89 25/25/25 94/127/90
f 27/27/27 94/127/90 25/25/25
f 94/127/90 27/27/27 95/128/91
f 29/29/29 95/128/91 27/27/27
f 95/128/91 29/29/29 96/129/92
f 29/29/29 97/130/93 96/129/92
f 97/130/93 29/29/29 30/30/30
f 30/30/30 98/131/94 97/130/93
f 98/131/94 30/30/30 99/132/95
f 31/31/31 99/132/95 30/30/30
f 99/132/95 31/31/31 32/32/32
f 32/32/32 100/133/96 99/132/95
f 100/133/96 32/32/32 33/33/33
f 33/33/33 101/134/97 100/133/96
f 101/134/97 33/33/33 34/34/34
f 34/34/34 38/38/38 101/134/97
f 38/38/38 34/34/34 35/35/35
f 40/40/40 101/134/97 38/38/38
f 101/134/97 40/40/40 102/135/98
f 42/136/42 102/135/98 40/40/40
f 102/135/98 42/136/42 103/137/99
f 44/138/44 103/139/99 42/140/42
f 103/139/99 44/138/44 104/141/100
f 46/142/46 104/141/100 44/138/44
f 104/141/100 46/142/46 49/143/101
f 49/144/101 105/145/102 104/146/100
f 105/145/102 49/144/101 51/147/103
f 51/148/103 106/149/104 105/150/102
f 106/149/104 51/148/103 53/151/105
f 53/152/105 107/153/106 106/154/104
f 107/153/106 53/152/105 55/155/107
f 55/156/107 57/157/49 107/158/106
f 57/157/49 55/156/107 56/159/50
f 108/160/108 107/158/106 57/157/49
f 107/158/106 108/160/108 109/161/109
f 96/129/92 109/162/109 108/163/108
f 109/162/109 96/129/92 97/130/93
f 97/130/93 110/164/110 109/165/109
f 110/164/110 97/130/93 98/131/94
f 98/131/94 111/166/111 110/167/110
f 111/166/111 98/131/94 112/168/112
f 99/132/95 112/168/112 98/131/94
f 112/168/112 99/132/95 100/133/96
f 100/133/96 102/135/98 112/168/112
f 102/135/98 100/133/96 101/134/97
f 103/169/99 112/168/112 102/135/98
f 112/168/112 103/169/99 111/170/111
f 104/146/100 111/171/111 103/172/99
f 111/171/111 104/146/100 105/145/102
f 105/150/102 110/173/110 111/174/111
f 110/173/110 105/150/102 106/149/104
f 106/154/104 109/175/109 110/176/110
f 109/175/109 106/154/104 107/153/106
f 113/177/113 96/129/92 108/178/108
f 96/129/92 113/177/113 95/128/91
f 114/179/114 95/128/91 113/180/113
f 95/128/91 114/179/114 94/127/90
f 115/181/115 94/127/90 114/182/114
f 94/127/90 115/181/115 93/126/89
f 116/183/116 93/126/89 115/184/115
f 93/126/89 116/183/116 92/125/88
f 117/185/117 92/125/88 116/186/116
f 92/125/88 117/185/117 91/124/87
f 118/187/118 91/124/87 117/188/117
f 91/124/87 118/187/118 90/123/86
f 118/189/118 89/122/85 90/123/86
f 89/122/85 118/189/118 119/190/119
f 118/191/118 66/88/63 119/192/119
f 66/88/63 118/191/118 64/86/61
f 117/193/117 64/84/61 118/194/118
f 64/84/61 117/193/117 62/82/59
f 116/195/116 62/80/59 117/196/117
f 62/80/59 116/195/116 61/78/57
f 115/197/115 61/76/57 116/198/116
f 61/76/57 115/197/115 60/74/55
f 114/199/114 60/72/55 115/200/115
f 60/72/55 114/199/114 59/70/53
f 113/201/113 59/68/53 114/202/114
f 59/68/53 113/201/113 58/66/51
f 108/203/108 58/64/51 113/204/113
f 58/64/51 108/203/108 57/62/49
f 66/91/63 120/205/120 119/206/119
f 120/205/120 66/91/63 67/90/64
f 67/207/64 121/208/121 120/209/120
f 121/208/121 67/207/64 122/210/122
f 68/211/65 122/210/122 67/207/64
f 122/210/122 68/211/65 123/212/123
f 68/95/47 124/213/47 123/214/47
f 68/95/47 69/94/47 124/213/47
f 69/215/124 125/216/125 124/217/126
f 125/216/125 69/215/124 126/218/127
f 70/219/67 126/220/127 69/221/124
f 126/220/127 70/219/67 71/222/66
f 71/222/66 127/223/128 126/220/127
f 127/223/128 71/222/66 72/224/68
f 72/225/68 128/226/129 127/227/128
f 128/226/129 72/225/68 73/105/69
f 73/105/69 77/110/73 128/226/129
f 77/110/73 73/105/69 74/107/70
f 79/112/75 128/226/129 77/110/73
f 128/226/129 79/112/75 129/228/130
f 81/114/77 129/228/130 79/112/75
f 129/228/130 81/114/77 82/115/78
f 82/115/78 130/229/131 129/228/130
f 130/229/131 82/115/78 131/230/132
f 83/116/79 131/231/132 82/115/78
f 131/231/132 83/116/79 132/232/133
f 84/117/80 132/233/133 83/116/79
f 132/233/133 84/117/80 133/234/134
f 84/117/80 134/235/135 133/236/134
f 134/235/135 84/117/80 85/118/81
f 85/118/81 135/237/136 134/238/135
f 135/237/136 85/118/81 86/119/82
f 86/119/82 121/239/121 135/240/136
f 121/239/121 86/119/82 87/120/83
f 87/120/83 120/241/120 121/242/121
f 120/241/120 87/120/83 88/121/84
f 88/121/84 119/243/119 120/244/120
f 119/243/119 88/121/84 89/122/85
f 122/245/122 135/246/136 121/247/121
f 135/246/136 122/245/122 136/248/137
f 123/249/123 136/248/137 122/245/122
f 136/248/137 123/249/123 137/250/138
f 123/214/47 138/251/47 137/252/47
f 123/214/47 124/213/47 138/251/47
f 124/253/126 139/254/139 138/255/140
f 139/254/139 124/253/126 125/256/125
f 125/256/125 131/257/132 139/254/139
f 131/257/132 125/256/125 130/258/131
f 126/218/127 130/259/131 125/216/125
f 130/259/131 126/218/127 127/260/128
f 127/261/128 129/228/130 130/262/131
f 129/228/130 127/261/128 128/226/129
f 132/263/133 139/264/139 131/265/132
f 139/264/139 132/263/133 140/266/141
f 133/267/134 140/268/141 132/269/133
f 140/268/141 133/267/134 141/270/142
f 133/271/134 142/272/143 141/273/142
f 142/272/143 133/271/134 134/274/135
f 134/275/135 136/276/137 142/277/143
f 136/276/137 134/275/135 135/278/136
f 137/279/138 142/277/143 136/276/137
f 142/277/143 137/279/138 143/280/144
f 137/252/47 144/281/47 143/282/47
f 137/252/47 138/251/47 144/281/47
f 138/283/140 140/266/141 144/284/145
f 140/266/141 138/283/140 139/264/139
f 141/270/142 144/285/145 140/268/141
f 144/285/145 141/270/142 145/286/146
f 141/273/142 143/287/144 145/288/146
f 143/287/144 141/273/142 142/272/143
f 143/282/47 144/281/47 145/289/47
f 9/9/9 80/113/76 2/2/2
f 80/113/76 78/111/74 2/2/2
f 78/111/74 76/109/72 2/2/2
f 2/2/2 28/28/28 26/26/26
f 2/2/2 26/26/26 24/24/24
f 2/2/2 24/24/24 22/22/22
f 2/2/2 22/22/22 20/20/20
f 2/2/2 20/20/20 18/18/18
f 3/3/3 2/2/2 18/18/18
